<mxfile host="app.diagrams.net" modified="2023-04-18T09:25:46.375Z" agent="Mozilla/5.0 (Windows NT 10.0; Win64; x64) AppleWebKit/537.36 (KHTML, like Gecko) Chrome/112.0.0.0 Safari/537.36" etag="pb9n2edA-0zwFnRlctA5" version="21.1.8" type="github">
  <diagram name="페이지-1" id="8HG5BicuwFbveNshowm1">
    <mxGraphModel dx="1635" dy="1592" grid="1" gridSize="10" guides="1" tooltips="1" connect="1" arrows="1" fold="1" page="1" pageScale="1" pageWidth="827" pageHeight="1169" math="0" shadow="0">
      <root>
        <mxCell id="0" />
        <mxCell id="1" parent="0" />
        <mxCell id="bujZLlu2ID5uPZ7i1owJ-1" value="&amp;lt;&amp;lt;device&amp;gt;&amp;gt; &lt;br&gt;" style="verticalAlign=top;align=center;spacingTop=8;spacingLeft=2;spacingRight=12;shape=cube;size=10;direction=south;fontStyle=4;html=1;rounded=0;shadow=0;comic=0;labelBackgroundColor=none;strokeWidth=1;fontFamily=Verdana;fontSize=12" vertex="1" parent="1">
          <mxGeometry x="-110" y="-760" width="830" height="610" as="geometry" />
        </mxCell>
        <mxCell id="bujZLlu2ID5uPZ7i1owJ-2" value="&amp;lt;&amp;lt;excution Environment&amp;gt;&amp;gt;&lt;br&gt;Ubuntu" style="verticalAlign=top;align=center;spacingTop=8;spacingLeft=2;spacingRight=12;shape=cube;size=10;direction=south;fontStyle=4;html=1;rounded=0;shadow=0;comic=0;labelBackgroundColor=none;strokeWidth=1;fontFamily=Verdana;fontSize=12;" vertex="1" parent="1">
          <mxGeometry x="-27" y="-710" width="660" height="280" as="geometry" />
        </mxCell>
        <mxCell id="bujZLlu2ID5uPZ7i1owJ-3" value="&amp;lt;&amp;lt;excution Environment&amp;gt;&amp;gt;&lt;br&gt;MySQL" style="verticalAlign=top;align=center;spacingTop=8;spacingLeft=2;spacingRight=12;shape=cube;size=10;direction=south;fontStyle=4;html=1;rounded=0;shadow=0;comic=0;labelBackgroundColor=none;strokeWidth=1;fontFamily=Verdana;fontSize=12" vertex="1" parent="1">
          <mxGeometry x="-90" y="-420" width="640" height="250" as="geometry" />
        </mxCell>
        <mxCell id="bujZLlu2ID5uPZ7i1owJ-4" value="&amp;lt;&amp;lt;artifact&amp;gt;&amp;gt;&lt;br&gt;AnomalyType" style="rounded=0;whiteSpace=wrap;html=1;" vertex="1" parent="1">
          <mxGeometry x="74.5" y="-370" width="145" height="40" as="geometry" />
        </mxCell>
        <mxCell id="bujZLlu2ID5uPZ7i1owJ-6" value="&amp;lt;&amp;lt;artifact&amp;gt;&amp;gt;&lt;br&gt;TrainingData" style="rounded=0;whiteSpace=wrap;html=1;" vertex="1" parent="1">
          <mxGeometry x="-80" y="-320" width="145" height="40" as="geometry" />
        </mxCell>
        <mxCell id="bujZLlu2ID5uPZ7i1owJ-7" value="&amp;lt;&amp;lt;artifact&amp;gt;&amp;gt;&lt;br&gt;device" style="rounded=0;whiteSpace=wrap;html=1;" vertex="1" parent="1">
          <mxGeometry x="-80" y="-370" width="145" height="40" as="geometry" />
        </mxCell>
        <mxCell id="bujZLlu2ID5uPZ7i1owJ-8" value="&amp;lt;&amp;lt;artifact&amp;gt;&amp;gt;&lt;br&gt;MLModel" style="rounded=0;whiteSpace=wrap;html=1;" vertex="1" parent="1">
          <mxGeometry x="74.5" y="-320" width="145" height="40" as="geometry" />
        </mxCell>
        <mxCell id="bujZLlu2ID5uPZ7i1owJ-9" value="&amp;lt;&amp;lt;artifact&amp;gt;&amp;gt;&lt;br&gt;ManagedObject" style="rounded=0;whiteSpace=wrap;html=1;" vertex="1" parent="1">
          <mxGeometry x="-80" y="-270" width="145" height="40" as="geometry" />
        </mxCell>
        <mxCell id="bujZLlu2ID5uPZ7i1owJ-10" value="&amp;lt;&amp;lt;artifact&amp;gt;&amp;gt;&lt;br&gt;ManufacturingPlant" style="rounded=0;whiteSpace=wrap;html=1;" vertex="1" parent="1">
          <mxGeometry x="74.5" y="-270" width="145" height="40" as="geometry" />
        </mxCell>
        <mxCell id="bujZLlu2ID5uPZ7i1owJ-11" value="&amp;lt;&amp;lt;artifact&amp;gt;&amp;gt;&lt;br&gt;AnomalyOccurrence" style="rounded=0;whiteSpace=wrap;html=1;" vertex="1" parent="1">
          <mxGeometry x="-80" y="-220" width="145" height="40" as="geometry" />
        </mxCell>
        <mxCell id="bujZLlu2ID5uPZ7i1owJ-12" value="&amp;lt;&amp;lt;artifact&amp;gt;&amp;gt;&lt;br&gt;statisticalMethod" style="rounded=0;whiteSpace=wrap;html=1;" vertex="1" parent="1">
          <mxGeometry x="383" y="-270" width="145" height="40" as="geometry" />
        </mxCell>
        <mxCell id="bujZLlu2ID5uPZ7i1owJ-13" value="&amp;lt;&amp;lt;artifact&amp;gt;&amp;gt;&lt;br&gt;report" style="rounded=0;whiteSpace=wrap;html=1;" vertex="1" parent="1">
          <mxGeometry x="383" y="-370" width="145" height="40" as="geometry" />
        </mxCell>
        <mxCell id="bujZLlu2ID5uPZ7i1owJ-14" value="&amp;lt;&amp;lt;artifact&amp;gt;&amp;gt;&lt;br&gt;Manager" style="rounded=0;whiteSpace=wrap;html=1;" vertex="1" parent="1">
          <mxGeometry x="229" y="-320" width="145" height="40" as="geometry" />
        </mxCell>
        <mxCell id="bujZLlu2ID5uPZ7i1owJ-15" value="&amp;lt;&amp;lt;artifact&amp;gt;&amp;gt;&lt;br&gt;Worker" style="rounded=0;whiteSpace=wrap;html=1;" vertex="1" parent="1">
          <mxGeometry x="229" y="-370" width="145" height="40" as="geometry" />
        </mxCell>
        <mxCell id="bujZLlu2ID5uPZ7i1owJ-16" value="&amp;lt;&amp;lt;artifact&amp;gt;&amp;gt;&lt;br&gt;RemedyMethod" style="rounded=0;whiteSpace=wrap;html=1;" vertex="1" parent="1">
          <mxGeometry x="383" y="-320" width="145" height="40" as="geometry" />
        </mxCell>
        <mxCell id="bujZLlu2ID5uPZ7i1owJ-17" value="&amp;lt;&amp;lt;artifact&amp;gt;&amp;gt;&lt;br&gt;RemedyOccurence" style="rounded=0;whiteSpace=wrap;html=1;" vertex="1" parent="1">
          <mxGeometry x="229" y="-270" width="145" height="40" as="geometry" />
        </mxCell>
        <mxCell id="bujZLlu2ID5uPZ7i1owJ-33" value="&amp;lt;&amp;lt;device&amp;gt;&amp;gt; &lt;br&gt;GPU" style="verticalAlign=top;align=center;spacingTop=8;spacingLeft=2;spacingRight=12;shape=cube;size=10;direction=south;fontStyle=4;html=1;rounded=0;shadow=0;comic=0;labelBackgroundColor=none;strokeWidth=1;fontFamily=Verdana;fontSize=12" vertex="1" parent="1">
          <mxGeometry x="560" y="-420" width="130" height="250" as="geometry" />
        </mxCell>
        <mxCell id="bujZLlu2ID5uPZ7i1owJ-35" value="" style="shape=folder;fontStyle=1;spacingTop=10;tabWidth=160;tabHeight=40;tabPosition=left;html=1;whiteSpace=wrap;" vertex="1" parent="1">
          <mxGeometry x="-17" y="-660" width="630" height="210" as="geometry" />
        </mxCell>
        <mxCell id="bujZLlu2ID5uPZ7i1owJ-21" value="&amp;lt;&amp;lt;artifact&amp;gt;&amp;gt;&lt;br style=&quot;border-color: var(--border-color);&quot;&gt;manufacturing.py" style="rounded=0;whiteSpace=wrap;html=1;" vertex="1" parent="1">
          <mxGeometry x="-6" y="-604" width="145" height="40" as="geometry" />
        </mxCell>
        <mxCell id="bujZLlu2ID5uPZ7i1owJ-23" value="&amp;lt;&amp;lt;artifact&amp;gt;&amp;gt;&lt;br style=&quot;border-color: var(--border-color);&quot;&gt;modeling.py" style="rounded=0;whiteSpace=wrap;html=1;" vertex="1" parent="1">
          <mxGeometry x="457" y="-604" width="145" height="40" as="geometry" />
        </mxCell>
        <mxCell id="bujZLlu2ID5uPZ7i1owJ-24" value="&amp;lt;&amp;lt;artifact&amp;gt;&amp;gt;&lt;br style=&quot;border-color: var(--border-color);&quot;&gt;manager.py" style="rounded=0;whiteSpace=wrap;html=1;" vertex="1" parent="1">
          <mxGeometry x="148.5" y="-604" width="145" height="40" as="geometry" />
        </mxCell>
        <mxCell id="bujZLlu2ID5uPZ7i1owJ-25" value="&amp;lt;&amp;lt;artifact&amp;gt;&amp;gt;&lt;br style=&quot;border-color: var(--border-color);&quot;&gt;remedy_method.py" style="rounded=0;whiteSpace=wrap;html=1;" vertex="1" parent="1">
          <mxGeometry x="303" y="-604" width="145" height="40" as="geometry" />
        </mxCell>
        <mxCell id="bujZLlu2ID5uPZ7i1owJ-26" value="&amp;lt;&amp;lt;artifact&amp;gt;&amp;gt;&lt;br style=&quot;border-color: var(--border-color);&quot;&gt;worker.py" style="rounded=0;whiteSpace=wrap;html=1;" vertex="1" parent="1">
          <mxGeometry x="-6" y="-550" width="145" height="40" as="geometry" />
        </mxCell>
        <mxCell id="bujZLlu2ID5uPZ7i1owJ-27" value="&amp;lt;&amp;lt;artifact&amp;gt;&amp;gt;&lt;br style=&quot;border-color: var(--border-color);&quot;&gt;anomaly_type.py" style="rounded=0;whiteSpace=wrap;html=1;" vertex="1" parent="1">
          <mxGeometry x="148.5" y="-550" width="145" height="40" as="geometry" />
        </mxCell>
        <mxCell id="bujZLlu2ID5uPZ7i1owJ-28" value="&amp;lt;&amp;lt;artifact&amp;gt;&amp;gt;&lt;br style=&quot;border-color: var(--border-color);&quot;&gt;managed_object.py" style="rounded=0;whiteSpace=wrap;html=1;" vertex="1" parent="1">
          <mxGeometry x="457" y="-550" width="145" height="40" as="geometry" />
        </mxCell>
        <mxCell id="bujZLlu2ID5uPZ7i1owJ-29" value="&amp;lt;&amp;lt;artifact&amp;gt;&amp;gt;&lt;br style=&quot;border-color: var(--border-color);&quot;&gt;remediator.py" style="rounded=0;whiteSpace=wrap;html=1;" vertex="1" parent="1">
          <mxGeometry x="-6" y="-500" width="145" height="40" as="geometry" />
        </mxCell>
        <mxCell id="bujZLlu2ID5uPZ7i1owJ-30" value="&amp;lt;&amp;lt;artifact&amp;gt;&amp;gt;&lt;br style=&quot;border-color: var(--border-color);&quot;&gt;detector.py" style="rounded=0;whiteSpace=wrap;html=1;" vertex="1" parent="1">
          <mxGeometry x="303" y="-550" width="145" height="40" as="geometry" />
        </mxCell>
        <mxCell id="bujZLlu2ID5uPZ7i1owJ-31" value="&amp;lt;&amp;lt;artifact&amp;gt;&amp;gt;&lt;br style=&quot;border-color: var(--border-color);&quot;&gt;training.py" style="rounded=0;whiteSpace=wrap;html=1;" vertex="1" parent="1">
          <mxGeometry x="303" y="-500" width="145" height="40" as="geometry" />
        </mxCell>
        <mxCell id="bujZLlu2ID5uPZ7i1owJ-32" value="&amp;lt;&amp;lt;artifact&amp;gt;&amp;gt;&lt;br style=&quot;border-color: var(--border-color);&quot;&gt;report.py" style="rounded=0;whiteSpace=wrap;html=1;" vertex="1" parent="1">
          <mxGeometry x="148.5" y="-500" width="145" height="40" as="geometry" />
        </mxCell>
        <mxCell id="bujZLlu2ID5uPZ7i1owJ-36" value="anomaly_manage" style="text;align=center;fontStyle=1;verticalAlign=middle;spacingLeft=3;spacingRight=3;strokeColor=none;rotatable=0;points=[[0,0.5],[1,0.5]];portConstraint=eastwest;html=1;" vertex="1" parent="1">
          <mxGeometry x="23" y="-653" width="80" height="26" as="geometry" />
        </mxCell>
        <mxCell id="bujZLlu2ID5uPZ7i1owJ-37" value="" style="shape=note;whiteSpace=wrap;html=1;backgroundOutline=1;darkOpacity=0.05;size=5;" vertex="1" parent="1">
          <mxGeometry x="120" y="-598" width="10" height="14" as="geometry" />
        </mxCell>
        <mxCell id="bujZLlu2ID5uPZ7i1owJ-38" value="" style="shape=note;whiteSpace=wrap;html=1;backgroundOutline=1;darkOpacity=0.05;size=5;" vertex="1" parent="1">
          <mxGeometry x="120" y="-544" width="10" height="14" as="geometry" />
        </mxCell>
        <mxCell id="bujZLlu2ID5uPZ7i1owJ-39" value="" style="shape=note;whiteSpace=wrap;html=1;backgroundOutline=1;darkOpacity=0.05;size=5;" vertex="1" parent="1">
          <mxGeometry x="120" y="-494" width="10" height="14" as="geometry" />
        </mxCell>
        <mxCell id="bujZLlu2ID5uPZ7i1owJ-40" value="" style="shape=note;whiteSpace=wrap;html=1;backgroundOutline=1;darkOpacity=0.05;size=5;" vertex="1" parent="1">
          <mxGeometry x="275" y="-598" width="10" height="14" as="geometry" />
        </mxCell>
        <mxCell id="bujZLlu2ID5uPZ7i1owJ-41" value="" style="shape=note;whiteSpace=wrap;html=1;backgroundOutline=1;darkOpacity=0.05;size=5;" vertex="1" parent="1">
          <mxGeometry x="275" y="-544" width="10" height="14" as="geometry" />
        </mxCell>
        <mxCell id="bujZLlu2ID5uPZ7i1owJ-42" value="" style="shape=note;whiteSpace=wrap;html=1;backgroundOutline=1;darkOpacity=0.05;size=5;" vertex="1" parent="1">
          <mxGeometry x="275" y="-493" width="10" height="14" as="geometry" />
        </mxCell>
        <mxCell id="bujZLlu2ID5uPZ7i1owJ-43" value="" style="shape=note;whiteSpace=wrap;html=1;backgroundOutline=1;darkOpacity=0.05;size=5;" vertex="1" parent="1">
          <mxGeometry x="430" y="-598" width="10" height="14" as="geometry" />
        </mxCell>
        <mxCell id="bujZLlu2ID5uPZ7i1owJ-44" value="" style="shape=note;whiteSpace=wrap;html=1;backgroundOutline=1;darkOpacity=0.05;size=5;" vertex="1" parent="1">
          <mxGeometry x="430" y="-544" width="10" height="14" as="geometry" />
        </mxCell>
        <mxCell id="bujZLlu2ID5uPZ7i1owJ-45" value="" style="shape=note;whiteSpace=wrap;html=1;backgroundOutline=1;darkOpacity=0.05;size=5;" vertex="1" parent="1">
          <mxGeometry x="430" y="-493" width="10" height="14" as="geometry" />
        </mxCell>
        <mxCell id="bujZLlu2ID5uPZ7i1owJ-46" value="" style="shape=note;whiteSpace=wrap;html=1;backgroundOutline=1;darkOpacity=0.05;size=5;" vertex="1" parent="1">
          <mxGeometry x="585" y="-598" width="10" height="14" as="geometry" />
        </mxCell>
        <mxCell id="bujZLlu2ID5uPZ7i1owJ-47" value="" style="shape=note;whiteSpace=wrap;html=1;backgroundOutline=1;darkOpacity=0.05;size=5;" vertex="1" parent="1">
          <mxGeometry x="585" y="-544" width="10" height="14" as="geometry" />
        </mxCell>
      </root>
    </mxGraphModel>
  </diagram>
</mxfile>
